<svg version="1.1" id="svg10040" inkscape:version="1.2.2 (732a01da63, 2022-12-09, custom)" sodipodi:docname="logo" xmlns:inkscape="http://www.inkscape.org/namespaces/inkscape" xmlns:sodipodi="http://sodipodi.sourceforge.net/DTD/sodipodi-0.dtd" xmlns:xlink="http://www.w3.org/1999/xlink" xmlns="http://www.w3.org/2000/svg" xmlns:svg="http://www.w3.org/2000/svg" viewBox="23.56 57.32 171.12 145.81">   <sodipodi:namedview id="namedview10042" pagecolor="#ffffff" bordercolor="#000000" borderopacity="0.25" inkscape:showpageshadow="2" inkscape:pageopacity="0.0" inkscape:pagecheckerboard="0" inkscape:deskcolor="#d1d1d1" inkscape:document-units="mm" showgrid="false" inkscape:zoom="0.75722503" inkscape:cx="578.42779" inkscape:cy="518.33997" inkscape:window-width="1920" inkscape:window-height="1016" inkscape:window-x="0" inkscape:window-y="27" inkscape:window-maximized="1" inkscape:current-layer="layer1"></sodipodi:namedview>   <defs id="defs10037">     <linearGradient inkscape:collect="always" id="linearGradient10711">       <stop style="stop-color:#66ea70;stop-opacity:1;" offset="0" id="stop10705"></stop>       <stop style="stop-color:#fffb40;stop-opacity:1;" offset="0.50999999" id="stop10707"></stop>       <stop style="stop-color:#ff2626;stop-opacity:1;" offset="1" id="stop10709"></stop>     </linearGradient>     <linearGradient inkscape:collect="always" xlink:href="#linearGradient10711" id="linearGradient10703" x1="28.091438" y1="84.292015" x2="173.86726" y2="228.40868" gradientUnits="userSpaceOnUse" gradientTransform="matrix(0.80846612,0,0,0.80846612,20.739813,13.21756)"></linearGradient>   </defs>   <g inkscape:label="Layer 1" inkscape:groupmode="layer" id="layer1">     <path id="path10196" style="fill:url(#linearGradient10703);fill-opacity:1;stroke:#f45151;stroke-width:0;stroke-dasharray:none;stroke-opacity:0.247059" d="m 83.421983,57.317844 c -0.339241,0 -0.678986,0.02548 -1.043631,0.07228 -11.491778,1.310509 -21.925697,6.801998 -29.543767,15.510321 -14.260866,2.104972 -29.276386,19.308114 -29.276386,34.096385 0,6.80555 3.039655,11.99414 7.7984,15.70208 h -1.776427 c -1.993006,0 -3.610092,1.61374 -3.610092,3.6101 v 17.04485 c 0,1.993 1.617086,3.61009 3.610092,3.61009 43.268145,0 57.93509,2.0939 127.544358,0 -0.95689,5.97867 -2.88482,11.75911 -5.76587,17.2575 -4.58528,8.75512 -11.38729,16.17479 -19.67315,21.45292 -8.03685,5.12306 -17.31885,8.16297 -26.83568,8.78396 -1.79446,0.11899 -3.22422,1.53436 -3.36527,3.32516 -0.14104,1.7908 1.05777,3.40814 2.80878,3.80186 4.63576,1.03979 9.29351,1.54163 13.90018,1.54163 23.34485,0 45.4007,-12.89267 56.57831,-34.23384 3.58527,-6.84901 5.89556,-14.30778 6.82705,-21.92919 h 9.47372 c 1.993,0 3.61051,-1.61751 3.61051,-3.61051 v -17.04485 c 3.4e-4,-1.99635 -1.61708,-3.6101 -3.61009,-3.6101 h -9.11986 C 180.07213,93.057116 155.36651,69.517208 125.25953,69.517208 H 110.7636 c -6.72267,0 -13.239081,1.144572 -19.438351,3.408302 v -7.7044 c 0,-4.357671 -3.545595,-7.903266 -7.903266,-7.903266 z m -0.128678,7.236896 c 0.07587,-0.0107 0.812177,0.292284 0.812177,0.667624 v 13.14565 c 0,1.241994 0.639048,2.397344 1.689528,3.057779 1.050479,0.66077 2.368351,0.736474 3.487681,0.194688 6.726015,-3.238674 13.953929,-4.880999 21.481749,-4.880999 h 14.49594 c 27.34489,0 49.59208,22.2476 49.59208,49.592498 v 12.32095 h -8.1e-4 c 0,0.0288 -0.004,0.054 -0.004,0.0827 0.0976,9.2678 -2.14092,18.53578 -6.47318,26.80726 -7.84534,14.97578 -21.72744,25.26222 -37.43617,28.90498 1.57787,-0.82688 3.12328,-1.72237 4.62865,-2.68261 9.34737,-5.95728 17.0193,-14.32241 22.18947,-24.19318 4.726,-9.02952 7.18092,-18.73107 7.29288,-28.83645 0.004,-0.20222 -0.0468,-6.98957 -0.0468,-6.98957 0,-4.97867 -4.05087,-9.02586 -9.02585,-9.02586 h -4.90273 l 0.51639,-1.83408 c 1.52007,-5.3938 -1.25304,-11.03324 -6.45564,-13.12017 -0.20956,-0.0829 -5.29627,-2.05425 -5.29627,-2.05425 -1.84863,-0.74366 -3.95352,0.15518 -4.69384,2.00746 -0.74366,1.84862 0.15516,3.95017 2.00746,4.69383 0,0 5.46281,2.17324 5.63594,2.21301 1.54514,0.80516 2.33201,2.58861 1.85205,4.29986 l -5.11203,18.10979 c -0.44754,1.59594 -1.91739,2.70809 -3.57083,2.70809 -0.33922,0 -0.67881,-0.0469 -1.01438,-0.14079 -0.95322,-0.27072 -1.74744,-0.89549 -2.2314,-1.76181 -0.48396,-0.86666 -0.60286,-1.87009 -0.33213,-2.82298 l 3.32181,-11.77364 c 0.54145,-1.91714 -0.57453,-3.91374 -2.49502,-4.45151 -1.92081,-0.54146 -3.91348,0.57403 -4.45527,2.49084 l -0.404,1.43677 h -22.10299 l 0.51638,-1.83367 c 1.52342,-5.39377 -1.25254,-11.03324 -6.45146,-13.12017 -0.2129,-0.0829 -5.30004,-2.05425 -5.30004,-2.05425 -1.848617,-0.74366 -3.949755,0.15517 -4.693413,2.00747 -0.739981,1.8486 0.155169,3.94975 2.007465,4.69341 0,0 5.465817,2.17365 5.63928,2.21343 1.541462,0.80514 2.332338,2.5886 1.848706,4.29986 l -5.108693,18.10979 c -0.451209,1.59593 -1.916975,2.70809 -3.570403,2.70809 -0.339241,0 -0.678821,-0.0469 -1.014385,-0.1408 -0.956897,-0.27073 -1.747435,-0.89547 -2.231398,-1.7618 -0.487305,-0.86632 -0.602949,-1.87052 -0.3359,-2.8234 l 3.321402,-11.77322 c 0.541451,-1.91713 -0.574127,-3.91416 -2.494602,-4.45194 -1.920812,-0.54144 -3.913825,0.57446 -4.455275,2.49126 l -0.404418,1.43677 -28.695244,-0.0217 C 35.892411,122.20512 30.780253,112.68474 30.780253,106.9985 c 0,-5.4048 2.971388,-11.972427 7.946713,-17.572091 4.974993,-5.592645 11.022473,-9.141418 16.177948,-9.49169 0.992991,-0.06852 1.913462,-0.541537 2.545149,-1.310596 6.498741,-7.921217 15.651139,-12.914199 25.774921,-14.062275 0.0254,-0.0036 0.04679,-0.0071 0.06852,-0.0071 z m 32.983405,16.49797 c -1.99667,0 -3.61051,1.617504 -3.61051,3.61051 0,1.993003 1.61418,3.610092 3.61051,3.610092 h 8.98282 c 10.2391,0 19.85356,4.02581 27.0709,11.337049 0.70387,0.714919 1.63538,1.072039 2.56688,1.072039 0.91711,0 1.83383,-0.34668 2.53805,-1.03987 1.41846,-1.400733 1.43325,-3.689888 0.0322,-5.10869 -8.58567,-8.693948 -20.02346,-13.48113 -32.20842,-13.48113 z m -60.892797,3.747544 c -0.237034,0 -0.472759,0.0061 -0.706891,0.01796 -0.234131,0.01191 -0.466767,0.02954 -0.697706,0.05306 -0.23093,0.02353 -0.460227,0.05289 -0.687673,0.08774 -0.227308,0.03483 -0.452862,0.07531 -0.676395,0.121158 -1.38e-4,2.7e-5 -2.83e-4,-2.8e-5 -4.21e-4,0 -0.223662,0.04588 -0.445101,0.09712 -0.664696,0.153745 -0.439191,0.113256 -0.870209,0.247833 -1.291379,0.402328 -0.210581,0.07725 -0.418527,0.159373 -0.624177,0.246495 -0.616811,0.261318 -1.210952,0.566674 -1.778091,0.91161 -1.05e-4,6.2e-5 -3.24e-4,-6.3e-5 -4.21e-4,0 -0.188979,0.114943 -0.374861,0.234394 -0.557744,0.358043 -9.7e-5,6.4e-5 -3.24e-4,-6.6e-5 -4.21e-4,0 -0.18298,0.123717 -0.362775,0.251805 -0.53936,0.383945 -0.35317,0.264282 -0.693114,0.545188 -1.018982,0.841422 -0.162931,0.148117 -0.322279,0.300136 -0.477949,0.455805 -0.155671,0.15567 -0.307687,0.315015 -0.455806,0.477948 -0.29623,0.325864 -0.577139,0.665808 -0.841419,1.018981 -0.132144,0.176586 -0.260229,0.356384 -0.383948,0.539363 -6.5e-5,9.3e-5 6.4e-5,3.23e-4 0,4.17e-4 -0.123647,0.182885 -0.243098,0.368765 -0.358038,0.557745 -6.4e-5,10e-5 5.7e-5,3.18e-4 0,4.18e-4 -0.34494,0.567146 -0.650298,1.160864 -0.91161,1.777681 -5.7e-5,1.17e-4 4.9e-5,3.01e-4 0,4.18e-4 -0.08707,0.205527 -0.169293,0.413714 -0.246501,0.624174 -0.15449,0.421162 -0.289067,0.851768 -0.402325,1.290959 -3.3e-5,1.29e-4 3.2e-5,2.83e-4 0,4.12e-4 -0.05659,0.219466 -0.10789,0.441172 -0.153746,0.664705 -0.04584,0.223662 -0.08631,0.44937 -0.121157,0.676815 -0.03484,0.227438 -0.06419,0.456743 -0.08773,0.687674 -0.02353,0.23093 -0.04115,0.463566 -0.05304,0.697706 -0.01188,0.234132 -0.01795,0.469848 -0.01795,0.70689 0,0.23676 0.0065,0.471781 0.01795,0.705646 1.6e-5,2.74e-4 -1.6e-5,5.57e-4 0,8.08e-4 4e-5,8.09e-4 -4.1e-5,0.0016 0,0.0024 0.01188,0.232434 0.02935,0.463405 0.05263,0.692694 8.9e-5,8.09e-4 3.31e-4,0.0016 4.2e-4,0.0024 1.46e-4,0.0016 2.75e-4,0.0024 4.21e-4,0.004 0.02328,0.228121 0.05255,0.454611 0.08689,0.679321 2.1e-4,0.002 2.1e-4,0.002 4.2e-4,0.004 2.75e-4,0.002 5.58e-4,0.003 8.09e-4,0.006 0.03468,0.2256 0.07478,0.44949 0.120324,0.67138 0.04592,0.22366 0.09712,0.44552 0.153746,0.66511 0.113258,0.43919 0.247835,0.86979 0.402325,1.29096 0.07729,0.21058 0.159373,0.41895 0.246501,0.62459 0.261361,0.61693 0.566597,1.21087 0.91161,1.7781 0.115004,0.18907 0.234318,0.37518 0.358037,0.55816 0.12372,0.18298 0.251805,0.36278 0.383949,0.53936 0.26428,0.35317 0.545189,0.69312 0.841419,1.01899 0.148119,0.16293 0.300135,0.32228 0.455805,0.47795 0.155671,0.15567 0.315019,0.30768 0.477949,0.4558 0.162931,0.14811 0.329353,0.29255 0.499253,0.43282 0.169907,0.14028 0.343145,0.27646 0.51973,0.4086 0.176585,0.13214 0.35638,0.26023 0.53936,0.38395 9.7e-5,6e-5 3.24e-4,-7e-5 4.21e-4,0 0.182883,0.12365 0.368765,0.2431 0.557744,0.35804 9.7e-5,6e-5 3.15e-4,-6e-5 4.21e-4,0 0.188978,0.11494 0.380916,0.22578 0.575708,0.33172 0.194889,0.106 0.392842,0.20744 0.593253,0.30415 0.20041,0.0967 0.403489,0.18862 0.60913,0.27574 0.20565,0.0871 0.413596,0.16925 0.624177,0.24649 0.42117,0.1545 0.852188,0.28907 1.291379,0.40233 0.219595,0.0566 0.441034,0.10786 0.664696,0.15375 1.38e-4,2e-5 2.83e-4,-3e-5 4.21e-4,0 0.223533,0.0458 0.449087,0.0863 0.676395,0.12116 0.227446,0.0348 0.456743,0.0642 0.687673,0.0877 0.230938,0.0235 0.463575,0.0412 0.697706,0.053 0.234132,0.0119 0.469857,0.0179 0.706891,0.0179 0.236767,0 0.471788,-0.006 0.705645,-0.0179 2.75e-4,-2e-5 5.58e-4,1e-5 8.09e-4,0 1.45e-4,-1e-5 2.83e-4,0 4.2e-4,0 6.95e-4,-5e-5 0.0016,3e-5 0.0024,0 0.232443,-0.0119 0.463413,-0.0294 0.692694,-0.0526 0.0024,-2.2e-4 0.0049,-6.1e-4 0.0065,-8e-4 0.228117,-0.0233 0.454609,-0.0525 0.679322,-0.0869 0.0032,-4.9e-4 0.0065,-7.7e-4 0.0096,-0.002 0.225603,-0.0347 0.4495,-0.0748 0.671383,-0.12032 0.223662,-0.0459 0.445521,-0.0971 0.665117,-0.15375 0.439191,-0.11325 0.869796,-0.24783 1.290961,-0.40233 0.210583,-0.0772 0.418948,-0.15936 0.62459,-0.24649 0.205643,-0.0871 0.408721,-0.17903 0.609134,-0.27574 0.200411,-0.0967 0.397948,-0.19814 0.592838,-0.30415 0.194891,-0.106 0.387048,-0.21672 0.576128,-0.33172 0.18908,-0.11501 0.375184,-0.23433 0.558162,-0.35804 0.182979,-0.12372 0.362777,-0.2518 0.539363,-0.38395 0.176586,-0.13214 0.349822,-0.26832 0.519726,-0.4086 0.169904,-0.14027 0.336323,-0.28471 0.499255,-0.43282 0.162859,-0.14805 0.322345,-0.30021 0.477948,-0.4558 0.155743,-0.15574 0.30762,-0.31495 0.455805,-0.47795 0.148117,-0.16293 0.292552,-0.32935 0.432826,-0.49926 0.140275,-0.1699 0.276454,-0.34314 0.408596,-0.51972 0.132141,-0.17659 0.260228,-0.35639 0.383945,-0.53936 0.123718,-0.18298 0.243039,-0.36909 0.358043,-0.55817 0.115004,-0.18907 0.225722,-0.38124 0.331722,-0.57612 0.106001,-0.19489 0.207443,-0.39243 0.304149,-0.59284 0.09671,-0.20042 0.188617,-0.40349 0.275739,-0.60914 0.08712,-0.20564 0.169247,-0.414 0.246494,-0.62458 0.154496,-0.42117 0.289073,-0.85178 0.402329,-1.29096 0.05662,-0.2196 0.107862,-0.44146 0.153745,-0.66512 0.04552,-0.22188 0.08566,-0.44578 0.120323,-0.67138 2.57e-4,-0.002 5.78e-4,-0.003 8.08e-4,-0.005 2.1e-5,-1.4e-4 -2.1e-5,-2.9e-4 0,-4.2e-4 2.11e-4,-0.002 2.07e-4,-0.002 4.18e-4,-0.004 0.03436,-0.22471 0.06359,-0.4512 0.0869,-0.679321 1.28e-4,-0.0016 2.89e-4,-0.0024 4.18e-4,-0.004 1.4e-5,-1.37e-4 -1.5e-5,-2.75e-4 0,-4.12e-4 8.5e-5,-8.09e-4 3.32e-4,-0.0016 4.17e-4,-0.0024 0.04687,-0.461052 0.0706,-0.928458 0.0706,-1.401678 0,-0.474084 -0.02398,-0.942728 -0.07102,-1.404596 -0.02352,-0.230931 -0.05289,-0.460236 -0.08774,-0.687674 -0.03485,-0.227445 -0.07528,-0.453153 -0.121158,-0.676815 -0.04586,-0.223533 -0.09716,-0.445239 -0.153745,-0.664705 -3.4e-5,-1.29e-4 3.4e-5,-2.83e-4 0,-4.12e-4 -0.113256,-0.439191 -0.247833,-0.869797 -0.402329,-1.290959 -0.0772,-0.21046 -0.159428,-0.418647 -0.246494,-0.624174 -4.9e-5,-1.17e-4 5e-5,-3e-4 0,-4.18e-4 -0.08707,-0.205526 -0.179093,-0.408413 -0.275738,-0.608715 -5.5e-5,-1.11e-4 5.3e-5,-3.05e-4 0,-4.18e-4 -0.09671,-0.200411 -0.198149,-0.397948 -0.304149,-0.592838 -0.105943,-0.194786 -0.216786,-0.38673 -0.331723,-0.57571 -6.1e-5,-1e-4 6.1e-5,-3.18e-4 0,-4.18e-4 -0.114944,-0.18898 -0.234395,-0.37486 -0.358043,-0.557745 -6.3e-5,-9.4e-5 6.4e-5,-3.24e-4 0,-4.17e-4 -0.123717,-0.182979 -0.251804,-0.362777 -0.383945,-0.539363 -0.132142,-0.176586 -0.268321,-0.349822 -0.408596,-0.519726 -0.140274,-0.169904 -0.284709,-0.336323 -0.432826,-0.499255 -0.148185,-0.163006 -0.300062,-0.322211 -0.455805,-0.477948 -0.155603,-0.155596 -0.315089,-0.307755 -0.477948,-0.455805 -0.325864,-0.296234 -0.665809,-0.57714 -1.018981,-0.841422 -0.176586,-0.13214 -0.356384,-0.260228 -0.539363,-0.383945 -0.182978,-0.123718 -0.369082,-0.24304 -0.558162,-0.358043 -0.567239,-0.345013 -1.161171,-0.650244 -1.7781,-0.91161 -0.205642,-0.08712 -0.414007,-0.169247 -0.62459,-0.246495 -0.421165,-0.154495 -0.85177,-0.289072 -1.290961,-0.402328 -0.219595,-0.05662 -0.441455,-0.107862 -0.665117,-0.153745 -0.221883,-0.04552 -0.44578,-0.08566 -0.671382,-0.120322 -0.0032,-4.91e-4 -0.0065,-7.66e-4 -0.0096,-0.0013 -0.224713,-0.03436 -0.451205,-0.06359 -0.679322,-0.0869 -0.0024,-2.28e-4 -0.0049,-6.08e-4 -0.0065,-8.08e-4 -0.229281,-0.02331 -0.460251,-0.04078 -0.692693,-0.05264 -8.09e-4,-5.7e-5 -0.0024,5.6e-5 -0.0032,0 -0.233857,-0.01188 -0.468878,-0.01796 -0.705646,-0.01796 z m 0,6.499086 c 0.250026,0 0.497142,0.0128 0.740741,0.0376 0.243591,0.0248 0.483487,0.06149 0.71943,0.109878 0.235934,0.04838 0.468134,0.108491 0.695191,0.179231 0.227066,0.07074 0.448998,0.15211 0.66595,0.243987 0.21696,0.09188 0.428584,0.194027 0.634201,0.30582 0.202933,0.110329 0.400046,0.230751 0.590755,0.359296 0.0024,0.0016 0.0049,0.0029 0.0073,0.0046 9.7e-5,6.6e-5 3.15e-4,-6.7e-5 4.2e-4,0 0.0024,0.0019 0.0049,0.004 0.0081,0.0058 0.190151,0.128894 0.373907,0.266071 0.550646,0.411938 0.179274,0.147958 0.351288,0.304548 0.515549,0.468757 0.16426,0.164206 0.320735,0.336313 0.468756,0.51555 0.148021,0.179236 0.28765,0.365531 0.418204,0.558577 0.130555,0.193045 0.252031,0.392639 0.363892,0.598273 0.111862,0.205625 0.214295,0.417201 0.306238,0.634193 0.09194,0.217 0.173608,0.439652 0.244405,0.666791 0.141593,0.454269 0.239457,0.927537 0.289108,1.415042 0.02483,0.243752 0.0376,0.490924 0.0376,0.741153 0,0.250002 -0.01277,0.49715 -0.0376,0.740733 -0.04965,0.487173 -0.147515,0.960081 -0.289108,1.414211 -4e-5,1.3e-4 3.9e-5,2.9e-4 0,4.2e-4 -0.07077,0.22693 -0.152514,0.44911 -0.244405,0.66595 -4.9e-5,1.1e-4 4.8e-5,3e-4 0,4.2e-4 -0.0919,0.21684 -0.194436,0.42826 -0.306238,0.63378 -5.7e-5,10e-5 5.7e-5,3.1e-4 0,4.2e-4 -0.111814,0.20552 -0.233404,0.40487 -0.363892,0.59785 -6.3e-5,9e-5 6.3e-5,3.3e-4 0,4.1e-4 -0.130501,0.19299 -0.270254,0.37939 -0.418204,0.55859 -0.148021,0.17929 -0.304496,0.35126 -0.468756,0.51554 -0.326201,0.32624 -0.683168,0.62172 -1.066195,0.88154 -0.0049,0.003 -0.01059,0.007 -0.01585,0.0104 -0.190709,0.12863 -0.387821,0.24888 -0.590754,0.3593 -0.205617,0.11188 -0.417242,0.21386 -0.634202,0.30581 -0.215334,0.0913 -0.435633,0.1723 -0.660937,0.24274 -0.0032,8.1e-4 -0.0065,0.002 -0.0092,0.003 -0.22574,0.0703 -0.456509,0.12984 -0.691012,0.17798 -0.235943,0.0484 -0.475839,0.0855 -0.71943,0.1103 -0.243599,0.0248 -0.490715,0.0376 -0.740741,0.0376 -0.250253,0 -0.497377,-0.0128 -0.741153,-0.0376 -1.38e-4,-2e-5 -2.75e-4,10e-6 -4.13e-4,0 -0.243631,-0.0248 -0.483907,-0.0619 -0.71985,-0.1103 -0.236072,-0.0484 -0.468045,-0.10842 -0.695192,-0.17923 -0.227154,-0.0708 -0.449361,-0.15245 -0.66637,-0.24441 -1.21e-4,-5e-5 -3.07e-4,5e-5 -4.2e-4,0 -0.216887,-0.0919 -0.428253,-0.194 -0.633781,-0.30582 -1.05e-4,-5e-5 -3.15e-4,6e-5 -4.2e-4,0 -0.205529,-0.11182 -0.405309,-0.23338 -0.598265,-0.36389 -0.386116,-0.26115 -0.745697,-0.55882 -1.074128,-0.88738 -0.164224,-0.16428 -0.3208,-0.33626 -0.468757,-0.51554 -0.147901,-0.17921 -0.287353,-0.36561 -0.417791,-0.55859 -6.5e-5,-9e-5 6.4e-5,-3.1e-4 0,-4.1e-4 -0.130422,-0.19298 -0.252145,-0.39233 -0.363891,-0.59785 -5.6e-5,-1.1e-4 5.7e-5,-3.2e-4 0,-4.2e-4 -0.111738,-0.20552 -0.213977,-0.41694 -0.305818,-0.63378 -4.9e-5,-1.2e-4 4.8e-5,-3e-4 0,-4.2e-4 -0.09183,-0.21684 -0.173271,-0.43902 -0.243987,-0.66595 -4.1e-5,-1.3e-4 4e-5,-2.9e-4 0,-4.2e-4 -0.07074,-0.22694 -0.130867,-0.45856 -0.179229,-0.69436 -3.3e-5,-1.4e-4 2.4e-5,-2.9e-4 0,-4.2e-4 -0.04835,-0.235937 -0.08507,-0.475841 -0.109879,-0.719432 -0.02482,-0.243583 -0.03759,-0.490731 -0.03759,-0.740733 0,-0.250253 0.01277,-0.497385 0.03759,-0.741153 0.02482,-0.243769 0.06144,-0.484199 0.109879,-0.720263 0.04835,-0.236072 0.10848,-0.468053 0.179229,-0.6952 0.07074,-0.227138 0.152096,-0.449369 0.243987,-0.66637 0.09188,-0.216992 0.194015,-0.428568 0.305818,-0.634193 0.111803,-0.205633 0.233396,-0.405227 0.363891,-0.598273 0.130502,-0.193046 0.270238,-0.379769 0.418203,-0.558998 0.147974,-0.179237 0.304121,-0.350931 0.468345,-0.515129 0.164215,-0.164204 0.336297,-0.320805 0.515542,-0.468757 0.179164,-0.147881 0.365629,-0.287361 0.558586,-0.417786 9.7e-5,-6.6e-5 3.15e-4,6.5e-5 4.12e-4,0 0.193062,-0.130479 0.392631,-0.252107 0.598273,-0.363892 0.205641,-0.111786 0.417193,-0.21395 0.634201,-0.305821 0.434001,-0.18374 0.889442,-0.326461 1.361562,-0.423217 0.235927,-0.04835 0.476235,-0.08508 0.71985,-0.109878 1.38e-4,-1.4e-5 2.75e-4,1.4e-5 4.13e-4,0 0.24376,-0.02479 0.490925,-0.0376 0.741153,-0.0376 z m -22.193228,38.61976 48.285249,0.0218 -0.877352,3.11585 c -0.628015,2.23131 -0.534514,4.54887 0.241899,6.68625 H 33.190685 Z m 148.881545,0 h 5.3907 v 9.82382 h -5.40115 c 0.004,-0.31784 0.0104,-9.82382 0.0104,-9.82382 z m -77.86871,0.0218 h 22.10299 l -0.87735,3.11585 c -0.63203,2.23131 -0.53828,4.54887 0.24148,6.68625 H 101.4056 c 0.0902,-0.24531 2.79792,-9.8021 2.79792,-9.8021 z m 44.83016,0 h 6.94319 c 0.99299,0 1.80484,0.80892 1.80484,1.80525 0,0 0.0257,7.80535 0.0183,7.99685 h -11.56808 c 0.0902,-0.24531 2.80167,-9.8021 2.80167,-9.8021 z"></path>   </g> </svg>